<mxfile host="app.diagrams.net" modified="2024-11-10T12:11:37.582Z" agent="Mozilla/5.0 (Windows NT 10.0; Win64; x64) AppleWebKit/537.36 (KHTML, like Gecko) Chrome/130.0.0.0 Safari/537.36" etag="74tITF3BvRYukLy09n1n" version="21.6.9" type="device">
  <diagram name="PÃ¡gina-1" id="5DW9cUnYQINtKgYtR-lu">
    <mxGraphModel dx="1434" dy="740" grid="1" gridSize="10" guides="1" tooltips="1" connect="1" arrows="1" fold="1" page="1" pageScale="1" pageWidth="827" pageHeight="1169" math="0" shadow="0">
      <root>
        <mxCell id="0" />
        <mxCell id="1" parent="0" />
        <mxCell id="Nn5PVc1JgpVqQ2iMO11_-8" value="" style="edgeStyle=orthogonalEdgeStyle;rounded=0;orthogonalLoop=1;jettySize=auto;html=1;" edge="1" parent="1" source="Nn5PVc1JgpVqQ2iMO11_-1" target="Nn5PVc1JgpVqQ2iMO11_-3">
          <mxGeometry relative="1" as="geometry" />
        </mxCell>
        <mxCell id="Nn5PVc1JgpVqQ2iMO11_-1" value="INICIO" style="ellipse;whiteSpace=wrap;html=1;" vertex="1" parent="1">
          <mxGeometry x="180" y="40" width="120" height="80" as="geometry" />
        </mxCell>
        <mxCell id="Nn5PVc1JgpVqQ2iMO11_-9" value="" style="edgeStyle=orthogonalEdgeStyle;rounded=0;orthogonalLoop=1;jettySize=auto;html=1;" edge="1" parent="1" source="Nn5PVc1JgpVqQ2iMO11_-2" target="Nn5PVc1JgpVqQ2iMO11_-4">
          <mxGeometry relative="1" as="geometry" />
        </mxCell>
        <mxCell id="Nn5PVc1JgpVqQ2iMO11_-2" value="&lt;font style=&quot;vertical-align: inherit;&quot;&gt;&lt;font style=&quot;vertical-align: inherit;&quot;&gt;&lt;font style=&quot;vertical-align: inherit;&quot;&gt;&lt;font style=&quot;vertical-align: inherit;&quot;&gt;LED VERDE ALTO&lt;/font&gt;&lt;/font&gt;&lt;/font&gt;&lt;/font&gt;" style="rounded=0;whiteSpace=wrap;html=1;fillColor=#d5e8d4;strokeColor=#82b366;" vertex="1" parent="1">
          <mxGeometry x="180" y="140" width="120" height="60" as="geometry" />
        </mxCell>
        <mxCell id="Nn5PVc1JgpVqQ2iMO11_-3" value="espera 3 seg" style="rounded=1;whiteSpace=wrap;fillColor=#dae8fc;strokeColor=#6c8ebf;" vertex="1" parent="1">
          <mxGeometry x="180" y="220" width="120" height="60" as="geometry" />
        </mxCell>
        <mxCell id="Nn5PVc1JgpVqQ2iMO11_-19" value="" style="edgeStyle=orthogonalEdgeStyle;rounded=0;orthogonalLoop=1;jettySize=auto;html=1;" edge="1" parent="1" source="Nn5PVc1JgpVqQ2iMO11_-5" target="Nn5PVc1JgpVqQ2iMO11_-6">
          <mxGeometry relative="1" as="geometry" />
        </mxCell>
        <mxCell id="Nn5PVc1JgpVqQ2iMO11_-4" value="&lt;font style=&quot;vertical-align: inherit;&quot;&gt;&lt;font style=&quot;vertical-align: inherit;&quot;&gt;LED VERDE BAJO&lt;/font&gt;&lt;/font&gt;" style="rounded=0;whiteSpace=wrap;html=1;fillColor=#d5e8d4;strokeColor=#82b366;" vertex="1" parent="1">
          <mxGeometry x="180" y="310" width="120" height="60" as="geometry" />
        </mxCell>
        <mxCell id="Nn5PVc1JgpVqQ2iMO11_-18" style="edgeStyle=orthogonalEdgeStyle;rounded=0;orthogonalLoop=1;jettySize=auto;html=1;" edge="1" parent="1" source="Nn5PVc1JgpVqQ2iMO11_-5">
          <mxGeometry relative="1" as="geometry">
            <mxPoint x="240" y="420" as="targetPoint" />
            <Array as="points">
              <mxPoint x="250" y="410" />
              <mxPoint x="250" y="410" />
            </Array>
          </mxGeometry>
        </mxCell>
        <mxCell id="Nn5PVc1JgpVqQ2iMO11_-11" value="" style="edgeStyle=orthogonalEdgeStyle;rounded=0;orthogonalLoop=1;jettySize=auto;html=1;" edge="1" parent="1" source="Nn5PVc1JgpVqQ2iMO11_-6" target="Nn5PVc1JgpVqQ2iMO11_-7">
          <mxGeometry relative="1" as="geometry" />
        </mxCell>
        <mxCell id="Nn5PVc1JgpVqQ2iMO11_-6" value="LED ROJO ALTO" style="rounded=0;whiteSpace=wrap;html=1;fillColor=#f8cecc;strokeColor=#b85450;" vertex="1" parent="1">
          <mxGeometry x="180" y="470" width="120" height="60" as="geometry" />
        </mxCell>
        <mxCell id="Nn5PVc1JgpVqQ2iMO11_-23" value="" style="edgeStyle=orthogonalEdgeStyle;rounded=0;orthogonalLoop=1;jettySize=auto;html=1;" edge="1" parent="1" source="Nn5PVc1JgpVqQ2iMO11_-12" target="Nn5PVc1JgpVqQ2iMO11_-13">
          <mxGeometry relative="1" as="geometry" />
        </mxCell>
        <mxCell id="Nn5PVc1JgpVqQ2iMO11_-7" value="espera 1 seg" style="rounded=1;whiteSpace=wrap;html=1;fillColor=#dae8fc;strokeColor=#6c8ebf;" vertex="1" parent="1">
          <mxGeometry x="180" y="555" width="120" height="60" as="geometry" />
        </mxCell>
        <mxCell id="Nn5PVc1JgpVqQ2iMO11_-16" value="" style="edgeStyle=orthogonalEdgeStyle;rounded=0;orthogonalLoop=1;jettySize=auto;html=1;" edge="1" parent="1" source="Nn5PVc1JgpVqQ2iMO11_-12" target="Nn5PVc1JgpVqQ2iMO11_-13">
          <mxGeometry relative="1" as="geometry" />
        </mxCell>
        <mxCell id="Nn5PVc1JgpVqQ2iMO11_-22" value="" style="edgeStyle=orthogonalEdgeStyle;rounded=0;orthogonalLoop=1;jettySize=auto;html=1;" edge="1" parent="1" source="Nn5PVc1JgpVqQ2iMO11_-13" target="Nn5PVc1JgpVqQ2iMO11_-21">
          <mxGeometry relative="1" as="geometry" />
        </mxCell>
        <mxCell id="Nn5PVc1JgpVqQ2iMO11_-13" value="espera 1 seg" style="rounded=1;whiteSpace=wrap;html=1;fillColor=#dae8fc;strokeColor=#6c8ebf;" vertex="1" parent="1">
          <mxGeometry x="180" y="710" width="120" height="60" as="geometry" />
        </mxCell>
        <mxCell id="Nn5PVc1JgpVqQ2iMO11_-21" value="FIN" style="ellipse;whiteSpace=wrap;html=1;" vertex="1" parent="1">
          <mxGeometry x="180" y="790" width="120" height="80" as="geometry" />
        </mxCell>
        <mxCell id="Nn5PVc1JgpVqQ2iMO11_-24" value="" style="edgeStyle=orthogonalEdgeStyle;rounded=0;orthogonalLoop=1;jettySize=auto;html=1;" edge="1" parent="1" source="Nn5PVc1JgpVqQ2iMO11_-4" target="Nn5PVc1JgpVqQ2iMO11_-5">
          <mxGeometry relative="1" as="geometry">
            <mxPoint x="240" y="370" as="sourcePoint" />
            <mxPoint x="240" y="490" as="targetPoint" />
          </mxGeometry>
        </mxCell>
        <mxCell id="Nn5PVc1JgpVqQ2iMO11_-5" value="espera 1 seg" style="rounded=1;whiteSpace=wrap;html=1;fillColor=#dae8fc;strokeColor=#6c8ebf;" vertex="1" parent="1">
          <mxGeometry x="180" y="390" width="120" height="60" as="geometry" />
        </mxCell>
        <mxCell id="Nn5PVc1JgpVqQ2iMO11_-25" value="" style="edgeStyle=orthogonalEdgeStyle;rounded=0;orthogonalLoop=1;jettySize=auto;html=1;" edge="1" parent="1" source="Nn5PVc1JgpVqQ2iMO11_-7" target="Nn5PVc1JgpVqQ2iMO11_-12">
          <mxGeometry relative="1" as="geometry">
            <mxPoint x="240" y="615" as="sourcePoint" />
            <mxPoint x="240" y="730" as="targetPoint" />
          </mxGeometry>
        </mxCell>
        <mxCell id="Nn5PVc1JgpVqQ2iMO11_-12" value="LED ROJO BAJO" style="rounded=0;whiteSpace=wrap;html=1;fillColor=#f8cecc;strokeColor=#b85450;" vertex="1" parent="1">
          <mxGeometry x="180" y="630" width="120" height="60" as="geometry" />
        </mxCell>
      </root>
    </mxGraphModel>
  </diagram>
</mxfile>
